<svg width="61" height="38" viewBox="0 0 61 38" fill="none" xmlns="http://www.w3.org/2000/svg">
<path d="M38.7469 4.03015H22.2526V33.67H38.7469V4.03015Z" fill="#FF5F00"/>
<path d="M23.3 18.8501C23.2974 15.9956 23.9442 13.1778 25.1916 10.6103C26.439 8.04268 28.2542 5.79253 30.4998 4.03016C27.719 1.8444 24.3792 0.485118 20.8623 0.107659C17.3455 -0.2698 13.7933 0.349786 10.6119 1.89563C7.43056 3.44147 4.74828 5.85119 2.87171 8.84934C0.995144 11.8475 0 15.3131 0 18.8501C0 22.3871 0.995144 25.8527 2.87171 28.8508C4.74828 31.849 7.43056 34.2587 10.6119 35.8046C13.7933 37.3504 17.3455 37.97 20.8623 37.5925C24.3792 37.2151 27.719 35.8558 30.4998 33.67C28.2542 31.9076 26.439 29.6575 25.1917 27.0899C23.9443 24.5223 23.2974 21.7046 23.3 18.8501Z" fill="#EB001B"/>
<path d="M60.9987 18.8501C60.9988 22.387 60.0038 25.8526 58.1273 28.8508C56.2508 31.8489 53.5687 34.2587 50.3873 35.8045C47.206 37.3504 43.6539 37.97 40.1371 37.5925C36.6203 37.2151 33.2806 35.8558 30.4998 33.67C32.7434 31.9059 34.5572 29.6554 35.8044 27.0882C37.0516 24.521 37.6996 21.7042 37.6996 18.8501C37.6996 15.996 37.0516 13.1792 35.8044 10.612C34.5572 8.04482 32.7434 5.79431 30.4998 4.03016C33.2806 1.8444 36.6203 0.485107 40.1371 0.107653C43.6539 -0.269801 47.206 0.349813 50.3873 1.89567C53.5687 3.44153 56.2508 5.85125 58.1273 8.8494C60.0038 11.8476 60.9988 15.3132 60.9987 18.8501Z" fill="#F79E1B"/>
</svg>
