<svg width="75" height="25" viewBox="0 0 75 25" fill="none" xmlns="http://www.w3.org/2000/svg">
<path fill-rule="evenodd" clip-rule="evenodd" d="M18.7514 24.4527H12.2604L7.39296 5.33692C7.16193 4.45759 6.67138 3.68022 5.94981 3.31383C4.14904 2.39309 2.16472 1.66032 0 1.29075V0.554789H10.4565C11.8996 0.554789 12.982 1.66032 13.1624 2.94426L15.6879 16.7331L22.1757 0.554789H28.4863L18.7514 24.4527ZM32.0931 24.4527H25.9629L31.0107 0.554789H37.1409L32.0931 24.4527ZM45.0746 7.1716C45.255 5.88447 46.3373 5.14851 47.6001 5.14851C49.5844 4.96373 51.746 5.3333 53.5499 6.25085L54.6323 1.10553C52.8283 0.369571 50.844 0 49.0432 0C43.0934 0 38.764 3.31021 38.764 7.90437C38.764 11.3994 41.8307 13.2345 43.9954 14.34C46.3373 15.4424 47.2393 16.1783 47.0589 17.2806C47.0589 18.9342 45.255 19.6701 43.4542 19.6701C41.2895 19.6701 39.1248 19.119 37.1436 18.1982L36.0613 23.3467C38.226 24.2643 40.5679 24.6338 42.7327 24.6338C49.404 24.8154 53.5499 21.5084 53.5499 16.5447C53.5499 10.2938 45.0746 9.92745 45.0746 7.1716ZM75.0002 24.4527L70.1328 0.554789H64.9045C63.8222 0.554789 62.7398 1.29075 62.379 2.39309L53.3657 24.4527H59.6763L60.9359 20.9609H68.6896L69.4112 24.4527H75.0002ZM65.8073 6.98785L67.6081 15.9946H62.5602L65.8073 6.98785Z" fill="#172B85"/>
</svg>
